<?xml version="1.0" encoding="UTF-8" standalone="no"?>
<!-- Created with Inkscape (http://www.inkscape.org/) -->

<svg
   width="60mm"
   height="60mm"
   viewBox="0 0 60 60"
   version="1.1"
   id="svg5"
   xml:space="preserve"
   inkscape:version="1.2.2 (b0a8486541, 2022-12-01)"
   sodipodi:docname="fofcc.svg"
   inkscape:export-filename="fofcc.png"
   inkscape:export-xdpi="216.74667"
   inkscape:export-ydpi="216.74667"
   xmlns:inkscape="http://www.inkscape.org/namespaces/inkscape"
   xmlns:sodipodi="http://sodipodi.sourceforge.net/DTD/sodipodi-0.dtd"
   xmlns="http://www.w3.org/2000/svg"
   xmlns:svg="http://www.w3.org/2000/svg"><sodipodi:namedview
     id="namedview7"
     pagecolor="#ffffff"
     bordercolor="#000000"
     borderopacity="0.25"
     inkscape:showpageshadow="2"
     inkscape:pageopacity="0.0"
     inkscape:pagecheckerboard="0"
     inkscape:deskcolor="#d1d1d1"
     inkscape:document-units="mm"
     showgrid="false"
     inkscape:zoom="3.8318169"
     inkscape:cx="84.685675"
     inkscape:cy="53.499425"
     inkscape:window-width="1920"
     inkscape:window-height="1008"
     inkscape:window-x="0"
     inkscape:window-y="0"
     inkscape:window-maximized="1"
     inkscape:current-layer="layer1" /><defs
     id="defs2" /><g
     inkscape:label="Layer 1"
     inkscape:groupmode="layer"
     id="layer1"
     transform="translate(-120.04841,-87.140629)"><g
       id="g892"
       transform="rotate(36.220201,146.2364,115.9317)"><path
         id="path248-3"
         style="fill:#000000;stroke-width:0.264583"
         d="m 121.89184,101.61651 c -0.15152,0.13998 -0.24359,0.2649 -0.25195,0.36527 -0.054,0.64859 0.7457,1.15485 2.25844,1.42955 1.22526,0.22248 1.20236,0.1808 0.80675,1.44376 -0.5752,1.83638 0.14784,2.52118 1.99202,1.88558 l 2.19448,-0.90856 c 1.05585,-0.24752 0.72973,0.50373 -0.0169,1.98368 -0.34197,0.67787 -0.41746,1.19988 -0.2413,1.67303 0.35375,0.95002 1.16522,0.81422 2.32208,-0.36494 0.62508,-0.63712 1.31012,-1.1148 1.68437,-1.17447 0.60708,-0.0968 0.63241,-0.0398 0.66558,1.5087 0.0361,1.68616 0.54848,2.56192 1.2727,2.17529 0.23545,-0.12576 1.217,-1.07177 2.18086,-2.10266 1.27642,-1.36514 1.88702,-1.8737 2.24814,-1.8716 0.40966,0.002 0.47369,0.12607 0.36744,0.71089 -0.24694,1.3594 0.43089,1.49411 2.37832,0.47209 0.37721,-0.19797 0.4625,-0.1394 0.62972,0.43249 0.10639,0.36382 0.41622,0.71265 0.43385,0.73695 0.0176,0.0243 -0.90728,0.26181 -1.7998,0.5653 -1.28932,0.43842 -1.64754,0.66252 -1.74251,1.09209 -0.0951,0.43017 -0.32686,0.57394 -1.13488,0.70294 -1.2436,0.19852 -2.22933,1.12622 -2.09045,1.96766 0.0906,0.54872 0.0172,0.64272 -0.75488,0.96717 -0.47046,0.1977 -4.38068,3.2416 -4.8338,3.6125 -0.95765,0.78393 -0.97483,2.27383 -0.27365,4.54591 0.3023,0.97956 0.30799,1.95802 0.0193,3.55539 -0.53281,2.94823 -0.40217,4.23866 0.52159,5.14495 0.97489,0.95647 2.2937,1.34121 2.80659,0.81843 0.22121,-0.22547 0.49824,-0.96863 0.61534,-1.65137 0.23522,-1.37165 0.19898,-1.35782 2.15038,-0.81788 0.493,0.13642 0.92823,-0.22194 1.17207,-0.58398 0.66074,-0.98106 0.32553,-1.82574 0.27258,-3.53797 -0.0265,-0.85612 2.06665,-0.80517 2.53402,-1.71086 0.71004,-1.37595 -0.49504,-3.00507 -0.11218,-4.64371 0.0882,-0.3775 0.13168,-0.53818 1.10999,-0.91407 0.7067,-0.27154 1.04607,-0.11347 1.66926,-0.11941 0.90108,-0.009 0.60971,-0.4407 0.69914,-2.05538 0.0685,-1.2374 0.50281,-2.47579 0.86943,-2.47929 0.12402,-0.001 0.38175,0.15083 0.57219,0.33767 0.48275,0.47363 0.54725,0.33616 0.74609,-1.57955 0.19339,-1.86312 0.49413,-2.39288 1.04867,-1.84882 0.31116,0.30528 1.85436,2.50964 2.87339,4.10406 0.36534,0.57163 -0.16307,2.22493 -0.97577,3.0533 -0.32809,0.3344 -1.34964,1.03564 -2.27012,1.55827 -0.92049,0.52265 -1.96483,1.24934 -2.32112,1.61395 -0.78492,0.80432 -1.62567,3.10756 -1.56479,4.28528 0.0809,1.56395 0.97273,3.36855 2.2007,4.45324 0.98897,0.87361 1.22352,1.28542 1.99535,3.4989 0.79889,2.29084 1.0127,2.65475 2.46096,4.19387 1.45768,1.54906 1.73093,1.73617 3.37852,2.31562 0.98591,0.34672 2.1034,0.9457 2.70711,1.02111 1.48426,0.13907 3.03356,0.84313 4.34515,0.22875 1.42516,-0.67642 1.69511,-0.74015 3.47588,-3.21183 2.45066,-3.40137 2.84981,-4.45461 2.82643,-6.9039 -0.0141,-1.47555 -0.27701,-2.81259 -0.87756,-4.45967 -0.68713,-1.88455 -0.80879,-2.62132 -0.61163,-3.70504 0.13536,-0.74403 0.29478,-1.40288 0.35438,-1.46362 0.0596,-0.0607 1.0614,-0.0323 2.2264,0.0632 1.59571,0.13079 2.5807,0.0114 3.99349,-0.48429 3.94589,-1.42206 8.19473,-5.4223 6.62948,-11.83541 -0.82869,-2.4117 -2.07126,-4.32344 -3.67456,-5.65312 -1.47957,-1.22706 -2.87985,-1.77087 -5.99801,-2.32934 -1.43075,-0.25626 -2.15205,-0.4643 -2.72487,-1.02349 -1.8115,-1.766046 -5.30016,-2.18146 -7.68596,-0.840584 -1.47708,0.830164 -1.88103,1.409934 -3.56808,5.122224 -0.8129,1.78876 -0.86989,1.85763 -1.90626,2.31342 -0.68832,0.30271 -1.38519,0.37307 -1.95935,0.19739 -1.20096,-0.36745 -3.14889,-1.46754 -3.4373,-1.81222 -0.97286,-1.13945 -1.31078,-2.54808 -1.74714,-3.7187 -0.99047,-2.685488 -1.92653,-3.995867 -2.79149,-3.907145 -0.35165,0.03607 -0.45151,0.214281 -0.41965,0.750197 0.083,1.395488 -0.88205,0.857805 -1.6679,-0.929069 -0.16753,-0.374518 -0.71032,-1.604666 -1.64273,-2.73377 -1.87649,-2.326827 -3.65725,-2.378633 -3.94,-0.114785 -0.082,0.656629 -0.0614,1.109478 -0.47503,1.342353 -0.62449,0.351626 -1.12619,-0.115239 -2.105,-0.437784 -1.0829,-0.356843 -1.76176,-0.511882 -2.60558,-0.355543 -0.58277,0.107968 -1.43264,0.666951 -1.00223,1.468703 0.7267,1.353645 -1.84575,2.170316 -3.09438,2.683976 -0.9564,0.393447 -2.73332,1.282137 -3.38992,1.888707 z m 27.50429,8.06992 c 0.0612,-0.0667 0.23529,-0.0821 0.57457,-0.10233 0.84536,-0.0503 2.05401,1.02894 2.42663,2.16647 0.1378,0.42066 0.23286,1.50497 0.21156,2.40978 -0.0213,0.90482 -0.0755,1.68261 -0.12054,1.7285 -0.16564,0.16884 -0.99165,-0.44688 -0.99887,-0.7447 -0.007,-0.28602 -1.46291,-3.97733 -1.98964,-5.04396 -0.11265,-0.22806 -0.16478,-0.34686 -0.10371,-0.41376 z"
         sodipodi:nodetypes="ssssccssssscssssssssssscssssssasassssssssssscssscsccssssssccsscssssccssccsassssssssssssss" /><path
         style="fill:#803300;stroke-width:0.264583"
         d="m 151.28356,108.75041 c -0.003,-0.32223 -0.26935,-0.512 -1.07171,-0.76382 -0.58719,-0.18429 -2.13847,-0.87344 -3.44728,-1.53147 -2.12748,-1.06961 -2.4264,-1.14875 -2.82075,-0.74681 -0.2553,0.26023 -0.40426,0.87661 -0.32801,1.32526 0.0751,0.44177 0.36525,0.87319 0.73592,1.12498 0.3043,0.20664 1.08104,0.2212 1.08104,0.2212 1.74124,0.3563 5.53235,1.06689 5.74227,0.89279 0.0617,-0.0515 0.11077,-0.28632 0.10852,-0.52213 z"
         id="path1032-6"
         sodipodi:nodetypes="ssssaascs" /><path
         style="fill:#803300;stroke-width:0.264583"
         d="m 150.43858,113.53923 c -0.44436,-1.15744 -1.06476,-2.54063 -1.37866,-3.07376 -0.5299,-0.89997 -0.66513,-0.98453 -1.89029,-1.18206 -0.72576,-0.11702 -1.47326,-0.24347 -1.55191,-0.16774 -0.0786,0.0758 0.39111,0.66958 0.93471,1.20641 0.86607,0.8553 2.93213,3.79446 3.79057,5.39248 0.22351,0.41608 0.36885,0.47409 0.5993,0.2392 0.19954,-0.20338 0.0262,-1.03433 -0.50372,-2.41453 z"
         id="path1030-7" /><path
         style="fill:#44aa00;stroke-width:0.264583"
         d="m 142.51962,113.64349 c -0.40899,0.75097 -1.8402,3.31226 -1.86489,3.81151 -0.0247,0.49922 -0.27053,1.39523 -0.31599,1.07291 -0.0455,-0.32231 -0.042,-1.68 -0.14172,-1.67905 -0.0997,9.5e-4 -0.72475,0.92561 -1.46984,1.63496 -1.15277,1.09745 -4.18929,4.04568 -4.31048,4.90214 -0.0783,0.5536 -0.29493,1.5511 -0.33275,1.66341 l -0.69315,2.05867 c -0.0378,0.11233 0.48498,-3.42349 0.60735,-3.91862 0.12237,-0.49512 -2.01232,1.81227 -2.17864,1.77468 -0.19498,-0.0441 4.84716,-5.31815 5.39621,-5.69913 1.68183,-1.37691 5.59597,-5.95618 3.63741,-4.99638 -0.58819,0.28825 -1.99007,0.36416 -2.23773,0.12118 -0.10888,-0.10682 0.0917,-0.14604 0.44582,-0.0871 0.35407,0.0589 2.10021,-0.41868 2.71813,-0.64287 0.61792,-0.22417 1.96003,-2.64982 3.58704,-3.69457 0,0 -0.72482,0.13016 -3.00338,0.75232 -2.22776,0.60831 -2.43928,0.70493 -2.1594,1.08632 0.43567,0.59369 0.0666,0.85584 -1.42797,1.0142 -1.51415,0.16045 -2.15233,0.69987 -2.14173,1.8103 l 0.008,0.80012 -1.11157,0.37231 c -0.61137,0.20478 -4.35373,3.21964 -4.64446,3.51597 -0.62785,0.63996 -0.76863,1.49912 -0.37386,2.9893 l 0.44793,1.69096 0.9609,-1.09651 c 0.53748,-0.61338 0.45714,0.32957 -0.17782,1.03503 -0.72139,0.8014 -1.44146,4.78483 -1.24308,6.32103 0.11795,0.91339 0.83389,1.86898 1.87233,2.32346 0.83535,0.36558 1.06745,-0.50645 1.33747,-1.99869 0.26175,-1.44661 0.62916,-1.62573 1.74032,-1.27329 1.76563,0.56003 1.78841,0.46802 1.66047,-2.65266 -0.0662,-1.61342 2.29598,-1.38568 2.79953,-2.54094 0.5862,-1.34489 -0.8369,-3.16185 -0.0514,-4.40095 0.52464,-0.82765 1.94725,-1.34403 2.67317,-1.22327 0.59979,0.0998 0.64003,0.0674 0.58302,-0.46833 -0.20695,-1.94472 0.6932,-4.09388 1.71881,-4.10366 0.31443,-0.003 0.45174,-0.33678 0.53537,-1.30129 0.0619,-0.71349 0.30193,-1.49036 0.53348,-1.72638 0.84589,-0.86219 -0.21337,-0.79063 -1.13633,0.0621"
         id="path1028-5"
         sodipodi:nodetypes="csssssscsscsssscsssscssscscsssssaascsssc" /><path
         style="fill:none;stroke-width:0.264583"
         d="m 144.76574,110.95262 c -0.95006,0.70366 -1.58905,1.457 -2.24612,2.69087"
         id="path1026-3" /><path
         style="fill:#502d16;stroke-width:0.264583"
         d="m 163.44997,107.80498 1.94454,-6.10486 c -0.28476,-0.34284 -2.00118,-1.849314 -3.28218,-1.992596 -3.74928,-0.419277 -5.57875,1.340496 -6.71247,3.570746 -0.20134,0.50396 -0.41019,0.99509 -0.46411,1.09138 -0.054,0.0963 -0.25208,0.56067 -0.44036,1.03196 -0.41199,1.03128 -1.46185,2.14893 -2.25067,2.396 -0.51938,0.16267 -0.5176,0.22481 0.0184,0.64236 6.19751,-3.96117 8.04107,1.67714 10.37722,1.99924 0.12383,-0.13335 0.48798,-1.31894 0.8096,-2.6343 z"
         id="path1022-5"
         sodipodi:nodetypes="ccsccsscccc" /><path
         style="fill:#502d16;stroke-width:0.264583"
         d="m 161.82738,119.30975 0.73007,-8.09916 c -7.20436,-5.64433 -9.13451,-3.22406 -10.83696,-1.71124 -0.0645,0.0628 1.23547,1.60207 1.42728,2.56007 0.47218,2.35817 -0.4917,7.64551 4.81653,9.37542 0.39925,0.0716 0.66212,0.0588 1.44572,0.0116 1.76491,-0.10643 2.48593,-0.74371 2.41744,-2.13673 z"
         id="path1020-6"
         sodipodi:nodetypes="cccscscc" /><path
         style="fill:#502d16;stroke-width:0.264583"
         d="m 147.00823,120.40003 -0.86445,0.44583 c -1.0214,0.50428 -1.07455,0.64588 -1.82053,1.48487 -0.91252,1.35691 -0.79171,0.96449 -1.22363,3.04582 -0.26464,1.88123 0.49379,3.16365 1.82355,4.46827 0.96953,0.95121 1.76689,0.17813 2.59077,-0.0822 0.41672,-0.13167 1.09642,-0.71893 1.09642,-0.71893 -0.52393,-1.61866 -2.52991,-4.08807 -2.38265,-6.21026 0.0614,-0.88521 0.78052,-2.43341 0.78052,-2.43341 z"
         id="path1018-2"
         sodipodi:nodetypes="ccccsacsc" /><path
         style="fill:#502d16;stroke-width:0.264583"
         d="m 149.02851,128.52204 c 0.22978,0.36839 0.46567,0.20035 2.82245,-0.74523 0.54783,-0.21265 2.01271,-0.82109 3.09223,-1.18031 0.83129,-0.27662 1.28685,-0.38121 2.57199,-0.80114 2.97327,-0.74484 1.41524,-0.35046 4.16881,-1.21552 0.55693,-0.13979 1.96051,-0.0386 2.20385,-0.2866 0.087,-0.0887 0.1778,-0.73743 0.20178,-1.44166 l 1.5e-4,-6e-5 0.0436,-1.28044 -0.95496,-0.2569 c -2.51657,-0.30088 -1.37578,0.35118 -3.35246,0.6493 -0.50265,0.0758 -1.43296,0.0486 -2.06738,-0.0605 -1.31042,-0.45772 -3.10535,-1.22001 -3.66109,-2.65343 -1.15328,-2.9747 -3.31557,-3.22612 -3.80076,-2.01709 -0.0893,0.26912 -0.77069,1.09455 -1.51415,1.83428 l -1.38492,1.08188 c 0,0 -0.74443,1.7478 -0.82484,2.67147 -0.17949,2.06162 2.22591,5.33352 2.4557,5.70191 z"
         id="path1016-9"
         sodipodi:nodetypes="zcsccsccccscscccsz" /><path
         style="fill:#008000;stroke-width:0.264583"
         d="m 177.06881,109.62238 c -1.0323,-3.06513 -2.88459,-5.34647 -5.14444,-6.33602 -1.23002,-0.53861 -5.39204,-1.47422 -5.94857,-1.33721 -0.46539,0.11456 -2.28574,6.51802 -2.88587,10.1516 -0.64373,3.8976 -0.91439,7.26263 -0.64452,8.01339 0.25629,0.71305 2.93952,1.35488 5.64399,1.35007 2.99682,-0.005 4.15605,-0.54022 7.39704,-3.79721 2.98297,-2.76998 1.58237,-8.04462 1.58237,-8.04462 z"
         id="path1012-1" /><path
         style="fill:#008000;stroke-width:0.264583"
         d="m 161.75194,139.6307 c 0.38377,-0.50768 0.69882,-1.17308 1.42447,-2.11791 1.58992,-2.07016 2.40938,-4.15137 2.37836,-6.04041 -0.025,-1.52059 -1.49687,-6.38078 -1.96441,-6.48645 -0.70927,-0.16031 -5.78814,1.14275 -8.98516,2.30525 -3.23583,1.17663 -7.46607,3.11743 -8.0155,3.67745 -0.12697,0.12942 0.1541,1.31547 0.6246,2.63566 1.46725,4.11699 3.71949,6.13315 7.89117,7.00509 1.27711,0.26693 2.30333,0.5431 2.65354,0.614 1.57418,0.31865 3.13028,-0.45138 3.99293,-1.59268 z"
         id="path1008-2"
         sodipodi:nodetypes="cscscssssc" /><path
         style="fill:#44aa00;stroke-width:0.264583"
         d="m 125.30917,106.53932 c -0.46307,-0.1354 -0.5146,-0.32018 -0.32129,-1.15205 0.12664,-0.54493 0.46033,-0.80207 0.46116,-1.22755 0.001,-0.71147 -0.41177,-1.0373 -1.7502,-1.22164 -2.65041,-0.36504 -0.98911,-1.65943 1.62478,-2.82516 3.04118,-1.356294 3.93627,-1.436727 3.42658,-2.962654 -0.50969,-1.525935 1.38696,-1.272673 3.25268,-0.698657 1.02702,0.315969 1.61824,0.696947 2.29152,0.320684 0.41608,-0.232524 0.51443,-0.836979 0.5733,-1.309971 0.135,-1.084683 0.63807,-1.885926 1.29532,-1.648461 1.42063,0.513268 2.72108,2.42963 3.39315,4.067916 0.69248,1.688041 1.18329,2.427643 2.23005,2.264523 0.43288,-0.0675 0.50472,-0.14299 0.59352,-1.172656 0.0888,-1.029659 1.35211,0.72814 2.00169,2.725346 0.34075,1.04773 0.87369,2.34448 1.18429,2.88169 l 0.56472,0.97673 -0.86637,-0.34477 c -0.47651,-0.18962 -1.16206,-0.20225 -1.31716,-0.0442 -0.40509,0.41289 -1.25183,-0.12765 -2.7324,-1.51985 -1.08137,-1.0168 -1.18534,-1.07411 -0.64606,-0.35584 l 0.6428,0.85603 -1.66638,-0.61557 c -1.04669,-0.38665 -2.01242,-0.94772 -2.59776,-1.50798 -0.51199,-0.4911 -1.34474,-1.15113 -1.84996,-1.46734 -0.70727,-0.44257 -0.59489,-0.30586 0.48824,0.59431 1.58329,1.31582 1.43136,1.7086 -0.39961,0.98982 -1.79287,-0.70382 -6.44833,-1.57548 -6.61438,-1.35119 -0.0446,0.0602 4.46432,0.93782 5.22283,1.25688 0.75852,0.31904 1.85512,0.38314 -0.13412,0.71996 -1.42692,0.2416 -1.0632,0.39889 1.54876,0.10023 1.24085,-0.14189 4.62808,0.82539 6.08376,1.73733 l 0.76676,0.48035 -1.25937,0.19475 c -1.19688,0.18508 -1.17045,0.19461 0.53247,0.19209 1.8775,-0.003 2.32667,0.14816 1.85908,0.62476 -0.34884,0.35556 0.0912,1.6906 0.55233,2.31986 0.13461,0.18362 0.33719,0.56669 -0.0124,0.92298 -0.40611,0.41393 -0.6754,0.16817 -0.83486,-0.20322 -0.41983,-0.97779 -0.70987,-1.06264 -1.75176,-0.51248 -1.15242,0.60854 -1.45771,0.5205 -1.204,-0.34725 0.20753,-0.70987 -0.13122,-1.07553 -0.94217,-1.01696 -0.92963,0.0671 -1.95681,0.85842 -2.86658,2.20824 -0.89219,1.32373 -1.68884,1.94024 -2.0497,1.5862 -0.12679,-0.12439 -0.25436,-0.91674 -0.28351,-1.76077 -0.0291,-0.84403 -0.17389,-1.65323 -0.32168,-1.79822 -0.40748,-0.39978 -1.46143,0.0238 -2.67835,1.30529 -1.54717,1.62922 -2.46356,1.05858 -1.33167,-1.14582 0.88705,-1.72759 0.98146,-2.99403 -1.57604,-1.72215 -1.46947,0.6124 -2.27871,0.69511 -2.58207,0.60642 z"
         id="path1006-7"
         sodipodi:nodetypes="sssssssasssazsscsssccsccssszssscssssssssssssssscs" /><path
         style="fill:#000000;stroke-width:0.264583"
         d="m 172.9036,106.06072 c -1.08276,-1.01494 -2.11158,-1.46903 -4.58394,-2.0232 -1.24148,-0.27827 -1.46182,-0.3763 -0.73317,-0.3262 2.40854,0.1656 6.51273,2.07516 6.31742,2.93931 -0.037,0.16378 -0.46653,-0.0896 -1.00031,-0.58991 z"
         id="path1014-0" /><path
         style="fill:#000000;stroke-width:0.264583"
         d="m 163.69042,133.24554 c 0.31393,-1.35158 0.096,-3.23897 -0.60956,-5.27774 -0.34629,-1.00068 -0.56698,-1.82002 -0.49041,-1.82075 0.17324,-0.002 1.0505,2.41185 1.41531,3.89381 0.2699,1.09641 0.0717,3.50553 -0.32118,3.90324 -0.11248,0.11389 -0.10984,-0.2005 0.006,-0.69856 z"
         id="path1010-9" /></g></g></svg>
