<svg xmlns="http://www.w3.org/2000/svg" xml:space="preserve" width="60mm" height="60mm" viewBox="0 0 60 60"><path d="M135.667 87.143c-.206-.01-.36.012-.437.076-.5.416-.302 1.341.561 2.613.7 1.03.713.985-.465 1.587-1.714.876-1.697 1.871.049 2.743l2.185.93c.916.58.152.874-1.428 1.377-.723.23-1.149.542-1.363 1-.43.917.235 1.401 1.887 1.401.892 0 1.713.155 2.018.38.494.366.471.424-.611 1.532-1.178 1.207-1.445 2.186-.662 2.432.255.08 1.618.118 3.029.084 1.868-.045 2.659.035 2.91.294.285.294.242.427-.25.76-1.143.776-.765 1.354 1.329 2.029.405.13.423.232.132.752-.185.33-.217.796-.222.826s-.823-.465-1.664-.89c-1.216-.612-1.627-.711-2-.478-.374.233-.639.169-1.297-.318-1.012-.749-2.365-.803-2.868-.114-.329.449-.447.462-1.22.138-.47-.197-5.381-.857-5.963-.92-1.23-.135-2.306.896-3.437 2.988-.487.902-1.182 1.591-2.524 2.504-2.478 1.684-3.308 2.681-3.308 3.975 0 1.366.65 2.577 1.382 2.577.316 0 1.04-.323 1.61-.717 1.143-.793 1.108-.81 2.09.962.247.447.808.507 1.237.427 1.163-.215 1.531-1.046 2.716-2.283.593-.618 2.022.912 2.996.611 1.48-.457 1.799-2.458 3.236-3.332.332-.202.477-.283 1.43.152.689.314.814.667 1.255 1.108.637.637.741.127 1.956-.94.932-.818 2.12-1.375 2.379-1.116.088.088.16.378.16.645 0 .676.143.626 1.65-.574 1.465-1.167 2.054-1.323 2.054-.546 0 .436-.493 3.081-.917 4.925-.153.661-1.703 1.442-2.863 1.442-.469 0-1.685-.238-2.702-.53-1.018-.29-2.268-.527-2.778-.526-1.124.003-3.357 1.016-4.155 1.884-1.06 1.153-1.723 3.054-1.637 4.69.069 1.318-.061 1.774-1.1 3.875-1.076 2.174-1.186 2.582-1.27 4.693-.086 2.126-.028 2.452.712 4.034.443.946 1.072 2.178 1.44 2.662.37.484.891 1.34 1.116 1.977.35.622.738.929 1.221 1.44.5.551 1.985.522 4.997.062 4.144-.633 5.175-1.085 6.907-2.817 1.044-1.044 1.814-2.168 2.57-3.75.863-1.81 1.304-2.413 2.216-3.031.626-.425 1.208-.772 1.293-.772s.766.735 1.514 1.633c1.024 1.23 1.799 1.85 3.142 2.512 3.779 1.82 9.61 2.052 13.091-3.557 1.142-2.28 1.636-4.506 1.462-6.582-.16-1.915-.752-3.296-2.537-5.913-.82-1.2-1.176-1.861-1.178-2.662-.008-2.53-2.155-5.31-4.783-6.075-1.627-.473-2.324-.355-6.155 1.04-1.846.673-1.935.68-2.986.26-.699-.28-1.237-.727-1.513-1.26-.58-1.115-1.158-3.276-1.114-3.723.132-1.493.9-2.72 1.43-3.852 1.224-2.587 1.504-4.173.835-4.728-.272-.226-.47-.173-.83.225-.938 1.037-1.23-.029-.504-1.84.15-.383.648-1.632.8-3.088.347-2.969-.863-4.276-2.677-2.893-.526.401-.835.733-1.29.601-.689-.2-.707-.884-1.162-1.81-.504-1.022-.869-1.615-1.571-2.108-.486-.34-1.48-.556-1.75.313-.458 1.467-2.842.203-4.084-.329-.95-.407-2.829-1.053-3.722-1.097m13.502 25.285c.09-.003.223.11.475.338.628.568.704 2.187.153 3.25-.204.393-.911 1.22-1.572 1.838-.66.619-1.254 1.125-1.318 1.125-.237 0-.376-1.021-.168-1.235.2-.205 1.814-3.83 2.207-4.952.084-.24.132-.361.223-.364" style="fill:#000;stroke-width:.264583" transform="translate(-115.27 -84.967)"/><path d="M151.159 113.12c.227-.228.176-.551-.206-1.3-.28-.549-.874-2.139-1.32-3.534-.727-2.267-.88-2.536-1.443-2.536-.365 0-.909.325-1.176.694a1.78 1.78 0 0 0-.287 1.313c.065.362.599.927.599.927.965 1.492 3.113 4.696 3.384 4.724.08.008.282-.122.449-.288m-4.01 2.75c.515-1.128 1.067-2.54 1.228-3.137.271-1.008.237-1.164-.48-2.177-.425-.6-.858-1.222-.967-1.225-.11-.003-.204.748-.207 1.512-.004 1.217-.655 4.75-1.194 6.482-.14.451-.08.596.249.596.285 0 .756-.706 1.37-2.05" style="fill:#803300;stroke-width:.264583" transform="translate(-115.27 -84.967)"/><path d="M141.528 110.29c-.822.234-3.653 1.006-4.027 1.338-.373.332-1.185.784-.987.526s1.17-1.206 1.1-1.277-1.169.131-2.197.096c-1.59-.054-5.822-.157-6.518.356-.45.332-1.314.876-1.42.928l-1.955.947c-.107.051 2.783-2.052 3.222-2.311.44-.26-2.703-.167-2.792-.312-.105-.17 7.19-.265 7.847-.14 2.16.236 8.17-.177 6.114-.902-.618-.218-1.654-1.166-1.654-1.513 0-.152.169-.037.375.257s1.77 1.206 2.362 1.49 3.264-.456 5.15-.027c0 0-.601-.426-2.64-1.617-1.995-1.164-2.212-1.247-2.289-.78-.118.727-.564.647-1.724-.31-1.174-.968-2.006-1.045-2.792-.26l-.565.566-1.045-.533c-.574-.293-5.347-.853-5.762-.853-.897 0-1.609.501-2.396 1.826l-.893 1.504 1.456-.082c.814-.045.084.558-.864.598-1.077.047-4.425 2.322-5.383 3.54-.569.724-.75 1.904-.347 2.963.324.853 1.11.408 2.364-.445 1.216-.826 1.6-.689 2.127.351.837 1.653.919 1.604 3.057-.672 1.105-1.178 2.597.668 3.774.218 1.37-.523 1.67-2.811 3.106-3.118.958-.205 2.323.448 2.745 1.051.349.498.4.504.742.088 1.244-1.51 3.408-2.372 4.133-1.647.223.223.557.087 1.304-.529.553-.455 1.276-.828 1.606-.828 1.208 0 .415-.706-.84-.768" style="fill:#4a0;stroke-width:.264583" transform="translate(-115.27 -84.967)"/><path d="M145.022 110.01c-1.168-.186-2.153-.115-3.494.28" style="fill:none;stroke-width:.264583" transform="translate(-115.27 -84.967)"/><path d="m160.354 121.142 5.72-2.887c.045-.444-.082-2.724-.877-3.739-2.326-2.97-4.863-3.043-7.25-2.29-.5.209-.997.404-1.104.433-.106.028-.576.212-1.045.408-1.024.428-2.557.461-3.286.071-.48-.256-.523-.212-.446.463 7.168 1.65 4.434 6.915 5.84 8.808.183-.005 1.284-.575 2.448-1.267" style="fill:#502d16;stroke-width:.264583" transform="translate(-115.27 -84.967)"/><path d="m151.005 128.04 6.293-5.15c-1.016-9.095-4.096-8.778-6.368-8.934-.09-.002-.278 2.004-.828 2.812-1.352 1.988-5.802 5.003-3.32 10.004.23.335.423.513 1.005 1.04 1.312 1.185 2.272 1.253 3.218.229zm-11.156-9.814-.924-.305c-1.075-.376-1.213-.314-2.335-.26-1.607.3-1.243.111-3.03 1.26-1.53 1.129-1.913 2.568-1.913 4.431 0 1.359 1.11 1.386 1.873 1.792.386.205 1.28.28 1.28.28.79-1.508 1.147-4.67 2.765-6.05.675-.577 2.284-1.148 2.284-1.148" style="fill:#502d16;stroke-width:.264583" transform="translate(-115.27 -84.967)"/><path d="M135.466 125.356c-.102.422.183.473 2.509 1.493.535.242 1.995.862 3.008 1.38.78.4 1.173.653 2.373 1.276 2.614 1.6 1.241.765 3.787 2.124.49.3 1.4 1.373 1.748 1.373.124 0 .65-.39 1.17-.866l.945-.865-.485-.862c-1.548-2.007-1.215-.736-2.812-1.938-.406-.306-1.038-.99-1.404-1.518-.591-1.256-1.304-3.071-.67-4.472 1.315-2.906-.02-4.626-1.222-4.126-.255.125-1.321.217-2.37.204l-1.742-.23s-1.77.692-2.485 1.281c-1.597 1.316-2.248 5.324-2.35 5.746" style="fill:#502d16;stroke-width:.264583" transform="translate(-115.27 -84.967)"/><path d="M168.594 132.136c1.465-2.883 1.797-5.803.92-8.11-.477-1.254-2.724-4.88-3.211-5.182-.408-.252-6.254 2.933-9.268 5.05-3.233 2.27-5.824 4.433-6.171 5.151-.33.683 1.091 3.048 2.989 4.975 2.102 2.135 3.296 2.588 7.89 2.62 4.067.19 6.851-4.504 6.851-4.504m-32.916 10.134c.63-.082 2.096-.374 3.278-.518 2.591-.315 4.651-1.187 5.978-2.533 1.068-1.082 3.506-5.537 3.254-5.944-.382-.619-4.87-3.332-7.938-4.8-3.106-1.486-7.454-3.146-8.238-3.146-.182 0-.832 1.031-1.444 2.292-1.912 3.93-1.774 6.95.526 10.538.703 1.099 1.285 2.255 1.48 2.555.875 1.347 1.685 1.74 3.104 1.556" style="fill:green;stroke-width:.264583" transform="translate(-115.27 -84.967)"/><path d="M134.546 93.03c-.227-.425-.131-.592.598-1.036.477-.291.895-.233 1.199-.53.509-.498.452-1.021-.354-2.106-1.595-2.147.492-1.868 3.155-.818 3.098 1.22 3.782 1.803 4.514.37s1.88.1 2.777 1.833c.494.955.636 1.644 1.376 1.86.457.135.958-.218 1.337-.507.868-.664 1.793-.866 2.083-.23.629 1.373.172 3.644-.527 5.27-.72 1.677-.904 2.545-.055 3.178.352.262.456.26 1.253-.397.797-.658.427 1.475-.544 3.337-.509.977-1.061 2.266-1.227 2.864l-.302 1.087-.36-.86c-.199-.473-.67-.971-.892-.971-.578 0-.785-.983-.828-3.015-.032-1.484-.064-1.598-.199-.71l-.16 1.058-.728-1.62c-.457-1.018-.733-2.1-.743-2.91-.008-.71-.12-1.767-.248-2.35-.18-.814-.198-.638-.082.766.17 2.051-.218 2.218-.987.408-.753-1.773-3.391-5.707-3.668-5.668-.074.01 2.457 3.843 2.76 4.608.304.765 1.027 1.593-.607.409-1.172-.85-1.03-.48 1.013 1.175.97.787 2.652 3.882 3.02 5.56l.195.884-1.021-.763c-.97-.725-.959-.7.236.515 1.316 1.338 1.523 1.764.856 1.764-.499 0-1.143 1.25-1.27 2.02-.036.224-.168.637-.667.637-.58 0-.593-.365-.44-.739.404-.984.262-1.25-.86-1.609-1.242-.396-1.393-.676-.596-1.103.652-.349.676-.846.066-1.384-.699-.617-1.983-.796-3.584-.5-1.57.29-2.568.153-2.568-.352 0-.178.477-.824 1.059-1.436s1.058-1.282 1.058-1.489c0-.57-1.04-1.026-2.807-.998-2.247.037-2.481-1.017-.115-1.753 1.854-.576 2.825-1.396.126-2.33-1.467-.62-2.092-1.14-2.242-1.42" style="fill:#4a0;stroke-width:.264583" transform="translate(-115.27 -84.967)"/><path d="M168.22 126.669c-.034-1.484-.43-2.536-1.766-4.69-.671-1.08-.756-1.306-.281-.751 1.569 1.835 3.08 6.102 2.326 6.568-.143.088-.263-.396-.28-1.127m-25.857 12.461c1.185-.722 2.38-2.2 3.34-4.13.473-.949.903-1.68.957-1.626.123.122-.986 2.439-1.788 3.737-.594.96-2.452 2.506-3.011 2.504-.16 0 .066-.218.502-.485" style="fill:#000;stroke-width:.264583" transform="translate(-115.27 -84.967)"/></svg>